<svg id="レイヤー_1" data-name="レイヤー 1" xmlns="http://www.w3.org/2000/svg" viewBox="0 0 600 195.83"><defs><style>.cls-1{fill:#62853d;}.cls-2{fill:none;stroke:#000;stroke-miterlimit:10;}</style></defs><title>logo_contents</title><path class="cls-1" d="M391,381.24c-7.38,5.84-14.92,7.44-22.6,4.68-3.59-1.62-6.4-5.94-7.48-9.59-1.57-7.09,1.31-15.28,8.05-21.73,2.42-2.51,11.27-9,13.68-7.17,2.57,2,2,5.65,0,7.56-2.51,2.47-5.19,3.56-7.22,5.51-5.41,5.31-6.26,13.88-2.07,15.89s9.91,1.47,15.08-3.75c3.84-3.86,5.76-8.47,10.16-6C402.25,368.84,397.58,376,391,381.24Z" transform="translate(-216.28 -283.98)"/><path class="cls-1" d="M431.35,331.53c3.41,5.45,1.67,12.77-2.08,18.8a23.33,23.33,0,0,1-10.44,8.5,27.94,27.94,0,0,1-13.66,1.91c-7.32-2.19-11.77-10.29-10.73-17.16.46-3.71.43-4.74,2.61-8.86a16.15,16.15,0,0,1,5.23-6.15C414.93,319.23,427.24,322.21,431.35,331.53Zm-11.77,17.8c2.22-2,4.53-6.49,3.79-10.12-1.22-6.84-9.32-9.74-15.23-5.36-4.57,3.36-4.91,12.28-1.45,16.08C409.4,352.89,414.76,353.39,419.58,349.33Z" transform="translate(-216.28 -283.98)"/><path class="cls-1" d="M451.42,320.83a29.77,29.77,0,0,1,6.11-9.3c2.15-2.14,5.58-5.21,9.94-4,1.33.28,3.52,2.86,4.31,5.31,1.63,5.3,1.11,14.72,2.27,20.44.3,1.41,1,3.22.88,4.15-.6,2.88-6,5.44-8.71,3.19A52.29,52.29,0,0,1,464,328.7c-.41-3.86-.47-6.15-1.92-9.5-2.87,1.06-4,4.52-5.18,7.19-3.08,6.4-2.42,6.14-3.87,10.78-.79,2.77-1.34,10.29-3.4,11.46-5.48,3.29-6.39-1.86-7.61-6.82-1.42-5.45-2.25-10.35-4-15.78-1.41-4.33-3.73-9.57.53-11.86,7.46-3.82,7.16,6.89,10,11.4A24.29,24.29,0,0,0,451.42,320.83Z" transform="translate(-216.28 -283.98)"/><path class="cls-1" d="M518.47,302a4.63,4.63,0,0,1-2.73,5.36c-3.07,1.24-11.21,1-12.92,2.41s-1.82,10.47-1.95,12.4c-.08,1.61-.52,7.82-.65,9.44-.41,2.77-.21,11.63-4.29,12.61-1.81.43-4.56.06-5.31-1-.69-1.2.29-8.27.32-9.56.08-1.46.42-7.63.35-9.07.19-3.08-.14-6.75-.29-11.4-2.41-1.86-8.88,1.54-11.84.94a4.1,4.1,0,0,1-3.06-4.26c0-1.54,1.44-3.42,3.35-4.38,2.05-.77,9-1.63,10.56-2.66s1.63-6,1.87-7.85c.48-4.68-.94-10,7.72-10.93,5.49-.58,4.92,1.58,4.09,4.41-.55,4.27-2.28,6.54-.82,11.9C505.38,302,517.45,298.13,518.47,302Z" transform="translate(-216.28 -283.98)"/><path class="cls-1" d="M541.36,331.24c5.79,1.85,9-2,12.07.44a3.46,3.46,0,0,1-1,5.35c-5,2.06-13.4,2-17.63-.53-6.83-3.24-9-5.58-11.28-12.24-1.55-6.93-.45-11.95,2.88-15.34A18.46,18.46,0,0,1,537.9,302c10.28-1.81,18.57,2,21.19,10.72a14.21,14.21,0,0,1,.95,5.89,6,6,0,0,1-5.19,4.72c-4.4.52-6.69,1.3-11.06,1.77-2.95.34-6.8.9-9,1.36C535.24,329.15,537.52,330.05,541.36,331.24Zm-8-12.69c1.68.35,7.61-.7,11-.81,2.24-.12,5.2-1.06,5.89-2.33-1.55-6.39-7.65-7.57-14.19-4C533.36,312.84,532.69,317.06,533.33,318.55Z" transform="translate(-216.28 -283.98)"/><path class="cls-1" d="M582.79,321.15a29.45,29.45,0,0,1,10.3-4.27c3-.57,7.58-1.19,10.56,2.26,1,1,1.33,4.35.61,6.83-1.61,5.3-7.35,12.79-9.61,18.19-.55,1.33-.94,3.24-1.61,3.92-2.12,2-8.11,1.11-9.07-2.26a52.23,52.23,0,0,1,4.85-11.1c1.84-3.42,3.08-5.35,3.75-8.94-3-.74-5.84,1.51-8.35,3.05-6.15,3.57-5.46,3.73-9.26,6.76-2.2,1.86-6.87,7.78-9.22,7.6-6.34-.33-4.2-5.11-2.44-9.89,1.88-5.32,3.93-9.85,5.55-15.3,1.27-4.38,2.28-10,7.07-9.53,8.29,1,2.05,9.7,1.87,15A24.87,24.87,0,0,0,582.79,321.15Z" transform="translate(-216.28 -283.98)"/><path class="cls-1" d="M650.06,343.94a4.59,4.59,0,0,1-5.38,2.81c-3.34-.8-10.15-5.76-12.41-5.56s-7.47,7.57-8.68,9.09c-1,1.29-4.86,6.16-5.89,7.42-1.91,2.05-6.75,9.47-10.78,7.94-1.78-.69-3.9-2.57-3.94-3.84s4.91-6.67,5.67-7.72,4.66-6.06,5.42-7.29c1.9-2.44,3.69-5.66,6.2-9.58-1-2.91-8.4-3.8-10.55-6a4.1,4.1,0,0,1-.17-5.26c.89-1.27,3.15-2,5.3-1.72,2.16.52,8.55,3.8,10.43,3.83s4.76-4,6-5.41c3.06-3.57,4.82-8.77,12.75-4.56,5,2.7,3.3,4.15,1,6-2.89,3.2-5.65,4.07-7.44,9.34C638.85,336.22,651.36,340.13,650.06,343.94Z" transform="translate(-216.28 -283.98)"/><path class="cls-1" d="M676.23,362.4c2.37,3.93,4,8.38,2.31,10.66-1.25,1.69-4,1.17-5.13.78-2.39-.56-4-5.9-5.12-7.85-3.55-4.79-6.66-6.37-8.43-4.53-1.56,1.59,1.18,6.63,1.48,7.67,1.52,4.68,3.82,11.51-.46,15.63-3.21,3-7.72,3.33-11.79,2.48-2.94-.62-7.14-3.37-9.29-5.9-5.11-6-5.63-7.5-2.52-10.32a3.71,3.71,0,0,1,3-.2c5.25,1.68,4.1,8.76,12.69,7.52,2.73-2.21-.53-8.7-1.75-11.67-1.37-3.68-3.17-8.33-1.43-11.22,1.08-1.79,3.58-4.32,5.63-4.57,5.16-.52,10.3,1.79,15.09,5.29A36.33,36.33,0,0,1,676.23,362.4Z" transform="translate(-216.28 -283.98)"/><path class="cls-1" d="M497.87,475.67c0,1.92-.39,2.91-1.65,3.48s-3.15.63-5.82.63a11.7,11.7,0,0,0-1.17-3.54c1.77.09,3.78.06,4.35.06s.75-.18.75-.72v-4.5l-2.94,2.28a62.74,62.74,0,0,0-5.64-6.27,15.57,15.57,0,0,1-6.45,6.9,14.52,14.52,0,0,0-2.49-2.64v8.46h-3.57v-23.1h10.44v-5h3.69v5h10.5Zm-21.06-4.41c5.67-2.94,6.69-7.38,6.84-11.07h-6.84Zm10.53-11.07a22.74,22.74,0,0,1-.42,3.39,78.31,78.31,0,0,1,7.41,7.44V460.19Z" transform="translate(-216.28 -283.98)"/><path class="cls-1" d="M517.28,461.69a27.58,27.58,0,0,0,12.39,8.37,21.38,21.38,0,0,0-2.22,3.24c-1.08-.48-2.22-1.05-3.36-1.68v8.1h-3.63v-.81h-9.87v.84h-3.45v-7.86a31.06,31.06,0,0,1-3.3,1.68,17.69,17.69,0,0,0-2-3,28.41,28.41,0,0,0,11.82-8.85Zm-11.07-1.11h-3.48v-6.45h10.86v-2.4h3.66v2.4h11.07v6.45h-3.66v-3.21H506.21Zm7.32-1.47a25.21,25.21,0,0,1-7.65,6.84,21.73,21.73,0,0,0-2.46-2.85,17.48,17.48,0,0,0,6.66-5.16Zm6.93,16.65v-3.18h-9.87v3.18Zm.24-6.3a25.42,25.42,0,0,1-5.07-4.53,25.17,25.17,0,0,1-4.8,4.53Zm-.84-11.58a44,44,0,0,1,7.53,5.49l-2.7,2.34a40.66,40.66,0,0,0-7.35-5.73Z" transform="translate(-216.28 -283.98)"/><path class="cls-1" d="M543.26,468.11c-1.08.3-2.13.66-3.24,1v10.68h-3.27v-9.69c-1.62.48-3.12,1-4.5,1.32l-.87-3.39c1.5-.33,3.33-.81,5.37-1.38v-5.73h-2a27.26,27.26,0,0,1-1.11,3.84,26.1,26.1,0,0,0-2.52-1.65,37.5,37.5,0,0,0,1.71-9.66l3,.51c-.12,1.2-.27,2.37-.45,3.57h1.41v-5.76H540v5.76h2.49v3.39H540v4.83l2.76-.78Zm16.14-11.73s0,1.2-.06,1.62c-.57,13.38-1.11,18.27-2.25,19.77a3.29,3.29,0,0,1-2.34,1.56,17.15,17.15,0,0,1-3.39.09,10,10,0,0,0-1-3.48,24.33,24.33,0,0,0,2.67.12,1.25,1.25,0,0,0,1.11-.57c.75-1,1.29-5,1.77-15.81h-.15c-1.47,7.56-4.56,15.36-9.39,19.35a13.31,13.31,0,0,0-2.91-2.07c4.8-3.45,7.8-10.26,9.3-17.28h-1.41c-1.32,4.89-3.84,10.26-6.87,13.14a12.61,12.61,0,0,0-2.73-2c3-2.34,5.31-6.78,6.63-11.13h-1.53a22.34,22.34,0,0,1-3.09,5.37,20.36,20.36,0,0,0-2.7-2c2.37-2.61,4-6.9,4.92-11.31l3.24.6c-.3,1.38-.69,2.73-1.11,4.05Z" transform="translate(-216.28 -283.98)"/><line class="cls-2" x1="400" y1="182" x2="600" y2="182"/><line class="cls-2" y1="182" x2="200" y2="182"/></svg>