<svg id="レイヤー_1" data-name="レイヤー 1" xmlns="http://www.w3.org/2000/svg" viewBox="0 0 600 188.92"><defs><style>.cls-1{fill:#62853d;}.cls-2{fill:none;stroke:#000;stroke-miterlimit:10;}</style></defs><title>logo_howto</title><path class="cls-1" d="M404.78,341.49c2.41-2,5.31-4.56,5.63-6.05-.35-4.54-5.8-13-8.74-17.51-1.49-2-3-3.48-2.91-5.37.1-2.71,4.3-7.58,8.81-7.94,3.65-.23,6,8.83,8.13,12.57a219,219,0,0,1,13.2,26.07c1.08,2.72,4.05,8.22,4,9.94.34,3.18-3.81,4.48-5.93,5.12-4.13,1.75-7.05-12.57-11.34-14.33-1.7.52-3.22,2.22-5,3.58-2.78,2.11-6,4-7.27,6.27,2,6.53,8.35,11.81,11.61,17.35a7.37,7.37,0,0,1-3.74,8.23c-3.08,1.57-4.45-1.22-7.1-4.46-4.32-4-7.78-9.29-11.55-14.12-4.81-5.58-10.3-11.52-14.28-18-3.67-4.76-10-10-4.9-15.63,2.09-2.2,5.1-3.91,6.2-4,3.71-.38,6.71,7.53,8.73,10.64,3.08,4.83,5.27,8.64,8.82,12.13C399.69,345.64,402.31,343.39,404.78,341.49Z" transform="translate(-222.28 -292.9)"/><path class="cls-1" d="M471.09,314.22c2.75,5.82-.1,12.91-4.72,18.55a25.67,25.67,0,0,1-11.73,7.55,30.94,30.94,0,0,1-14.21.92c-7.31-2.66-11.16-11.06-9.33-18,.89-3.72,1-4.77,3.72-8.8a17.7,17.7,0,0,1,6.24-5.86C455.57,300.11,468.19,304.48,471.09,314.22Zm-14.57,16.65c2.52-1.8,5.48-6.09,5.2-9.79-.33-7-8.43-10.66-15.19-6.71-5.21,3-6.58,12-3.4,16.09C445.61,333.62,451.06,334.51,456.52,330.87Z" transform="translate(-222.28 -292.9)"/><path class="cls-1" d="M501.93,307c2-1,4.66-1.79,6.63-.15,3.35,2.83,5.59,14.11,8,14.36,2.12.15,8.1-7.34,10-12.37,1.67-4.67,2.51-11.85,4.29-14.4,1.95-1.94,8.22-2.45,10.44.79-.74,13.44-10.17,26.86-18.5,31.93-3.81,2.11-8.44,3.84-11.86,1.58-1.57-1-5.07-7.09-5.89-7.25-.63-.2-4.05,6-5.74,7.57-3.36,2.74-9.66,4.68-13.3,1.41-2.66-2.29-4.65-7.4-6.53-11.4-1.1-2.7-6-14.77-3.75-18,1.67-2.48,7.53-3.37,9.49-1.75,1.69,1.4,1.89,9.74,2.63,12.53,1.14,3.94,2.71,9.83,4.6,11.3C497.35,321.11,498.76,309.28,501.93,307Z" transform="translate(-222.28 -292.9)"/><path class="cls-1" d="M618.87,320.81a4.55,4.55,0,0,1-5.25,3.21c-3.55-.58-11.28-5-13.61-4.6s-6.71,8.3-7.75,9.94c-.83,1.38-4.18,6.65-5.06,8-1.69,2.25-5.66,10.16-9.92,9.1-1.89-.48-4.29-2.1-4.52-3.36s4.06-7.23,4.69-8.36,3.91-6.58,4.51-7.89c1.61-2.65,3-6.06,5-10.26-1.47-2.82-9.3-2.87-11.88-4.76a4,4,0,0,1-1-5.21c.73-1.38,3-2.41,5.27-2.37,2.35.26,9.54,2.82,11.51,2.67s4.38-4.48,5.49-6c2.67-3.88,3.75-9.32,12.75-5.76,5.68,2.31,4.08,3.93,1.91,6-2.57,3.47-5.35,4.58-6.47,10.05C606.2,313.81,619.76,316.83,618.87,320.81Z" transform="translate(-222.28 -292.9)"/><path class="cls-1" d="M651.73,361.48c-3.65,5.31-11.48,6-18.92,4.6a28.26,28.26,0,0,1-12.8-6.81,31.65,31.65,0,0,1-8.08-12c-1.36-7.69,4-15.21,10.93-17.05,3.69-1.06,4.64-1.52,9.57-1.09a18.26,18.26,0,0,1,8.34,2.62C655.78,340.42,658.81,354.17,651.73,361.48Zm-22.44-5.16c2.9,1.38,8.25,2,11.36-.07,6-3.67,4.91-12.79-2.08-16.85-5.39-3.14-13.94.1-15.86,4.88C621.21,348,623.23,353.23,629.29,356.32Z" transform="translate(-222.28 -292.9)"/><line class="cls-2" x1="400" y1="174.94" x2="600" y2="174.94"/><path class="cls-1" d="M453.58,471.65a27.74,27.74,0,0,1-1.8,7.74,17.63,17.63,0,0,0-2.73-1.29,21.81,21.81,0,0,0,1.59-7Zm3.69-2.34v12.33h-3.15V469.55l-4.44.3-.3-3.12,2.22-.09c.45-.57.93-1.2,1.38-1.86a28.26,28.26,0,0,0-3.6-4.11l1.68-2.46.72.63a39.66,39.66,0,0,0,2.19-5.22l3.15,1.11c-1.08,2.07-2.31,4.38-3.39,6.06.39.42.75.87,1,1.26a46.91,46.91,0,0,0,2.76-4.92l3,1.26a96.58,96.58,0,0,1-5.73,8.13l3-.12c-.33-.72-.69-1.44-1.05-2.07l2.52-1.11a24.47,24.47,0,0,1,2.76,6.33l-2.7,1.26a16.33,16.33,0,0,0-.42-1.62ZM460,471a34.21,34.21,0,0,1,1.95,5.64l-2.82,1a30.53,30.53,0,0,0-1.77-5.79Zm17.64,6.63v3.21H460.06v-3.21h2.76v-22.5H475.6v22.5ZM466.27,458.3v4.17H472V458.3Zm5.73,7.35h-5.73v4.29H472Zm-5.73,11.94H472v-4.44h-5.73Z" transform="translate(-222.28 -292.9)"/><path class="cls-1" d="M487.42,456.44c1.71,0,4.89-.15,6.3-.27a6.44,6.44,0,0,0,2-.42l2.4,1.86a7.23,7.23,0,0,0-1,1.26,63.92,63.92,0,0,0-3,6.45,27,27,0,0,1,6.51,1.92c0-.36.06-.69.09-1a19.76,19.76,0,0,0,0-3.27l3.93.45a48.72,48.72,0,0,1-.57,5.55c1.26.72,2.34,1.41,3.21,2l-1.74,4.17A31.28,31.28,0,0,0,503,473a15,15,0,0,1-7.62,8.13l-3.18-2.61c4.53-1.95,6.63-4.8,7.62-7.53a20.8,20.8,0,0,0-7.11-2.43,59,59,0,0,1-3.39,7.2,5.23,5.23,0,0,1-4.68,2.64,4.49,4.49,0,0,1-4.62-4.86c0-4.65,4.23-8.19,10.26-8.46.84-2,1.71-4,2.4-5.43-1.2.06-3.78.15-5.16.24-.6,0-1.65.12-2.43.24l-.15-3.87C485.74,456.38,486.76,456.44,487.42,456.44Zm-2.64,18.06c.6,0,1-.3,1.56-1.05a33.6,33.6,0,0,0,2.43-4.89c-3.36.51-5.25,2.55-5.25,4.44C483.52,474,484.09,474.5,484.78,474.5Z" transform="translate(-222.28 -292.9)"/><path class="cls-1" d="M537.13,476.87v3.57H510v-3.57h14.94a75,75,0,0,0,3.42-13.53l4.11.75a122.09,122.09,0,0,1-3.75,12.78Zm-.87-14.52H510.94v-3.51h10.65v-5.22h3.72v5.22h11Zm-18.9,13.59a48.64,48.64,0,0,0-2.58-11.58l3.42-.9A49.07,49.07,0,0,1,521,475Z" transform="translate(-222.28 -292.9)"/><path class="cls-1" d="M543.61,458.21l12.93-1.14c3.09-.24,6.39-.45,8.49-.51l0,3.84a34,34,0,0,0-5.79.39,9.13,9.13,0,0,0-6.33,8.43c0,4.92,4.62,6.72,9.69,7l-1.41,4.11C555,479.9,549,476.51,549,470a12.08,12.08,0,0,1,4.44-9.27c-2.82.3-8.94,1-12.42,1.71l-.39-4.11C541.84,458.33,543,458.27,543.61,458.21Z" transform="translate(-222.28 -292.9)"/><path class="cls-1" d="M582.52,461.78c-.09,1.29-.18,2.61-.33,3.9h11.58a14.6,14.6,0,0,1-.12,1.56c-.54,8.16-1.17,11.52-2.37,12.84a4.43,4.43,0,0,1-3.24,1.38,41.09,41.09,0,0,1-5.13,0,8.3,8.3,0,0,0-1.26-3.51c2.07.21,4.17.21,5,.21a1.93,1.93,0,0,0,1.44-.39c.78-.66,1.32-3.27,1.74-8.73h-8.25c-1.14,5.07-3.63,9.75-9.63,12.78a11.4,11.4,0,0,0-2.52-3c8.1-3.75,8.79-10.59,9.12-17H570v-3.42H581.5v-4.89h3.69v4.89H597v3.42Z" transform="translate(-222.28 -292.9)"/><line class="cls-2" y1="174.94" x2="200" y2="174.94"/></svg>