<svg id="レイヤー_1" data-name="レイヤー 1" xmlns="http://www.w3.org/2000/svg" viewBox="0 0 600 169.78"><defs><style>.cls-1{fill:#fbd100;}.cls-2{fill:none;stroke:#000;stroke-miterlimit:10;}</style></defs><title>logo_lineup</title><path class="cls-1" d="M383.23,343.33c4.09,1.09,7.55,11.5,9.54,14.53,2.24,3.66,5.19,9.34,8,13.33,1.94,2.65,6.57,10,8,9.93,1.71-1.1,6.49-5.21,8.37-6.89,3.94-3.81,7.73-7.22,10.82-7,4.15.2,4.22,4.76,1.5,7.06-6.33,5.37-11.58,9.68-18.45,16.42-1.94,1.78-2.47,2.84-3.88,3.43-3.1,1.35-5.67-1.71-8.21-5.51a273.7,273.7,0,0,1-16.12-22.26c-4.19-5.45-11.46-14.11-4.38-20.23C380.4,344.31,381.44,343.46,383.23,343.33Z" transform="translate(-221.79 -309.96)"/><path class="cls-1" d="M437.67,335.15c.75.79.68,3,1,5.2a65.14,65.14,0,0,0,4,13.93c1.12,2.66,3.39,6.53,3.27,8.48-.26,2.61-4.75,6.85-7.77,6.35-2.13-.32-3-3.52-4.15-6.48-2.09-5.17-4.13-10.65-6-15.69-1.33-3.91-2-8.67,2.88-11.57C432.29,334.46,436.26,333.5,437.67,335.15Zm-3.22-12.46c2,4.31-8.69,11.18-11.61,7.45-1.48-1.93,0-5.41,2.84-7.38C429.34,320.27,433.14,320.12,434.45,322.69Z" transform="translate(-221.79 -309.96)"/><path class="cls-1" d="M463.91,330.26a31.43,31.43,0,0,1,7-9.65c2.47-2.23,6.44-5.43,11.29-4.29,1.48.27,3.84,2.84,4.62,5.3,1.62,5.32.68,14.77,1.77,20.52.28,1.41,1,3.22.82,4.16-.76,2.88-6.76,5.52-9.63,3.34a46.84,46.84,0,0,1-2.14-11.93c-.34-3.87-.34-6.18-1.86-9.51-3.23,1.14-4.53,4.68-5.94,7.42-3.54,6.59-2.8,6.31-4.46,11.08-.9,2.84-1.57,10.47-3.8,11.79-5.95,3.69-7-1.43-8.3-6.37-1.56-5.43-2.46-10.34-4.32-15.72-1.53-4.28-4.09-9.44.7-12.09,8.41-4.4,7.88,6.51,11,10.9A28.17,28.17,0,0,0,463.91,330.26Z" transform="translate(-221.79 -309.96)"/><path class="cls-1" d="M518.62,339.78c6.61,1,9.53-3.16,13.28-1.14,2.09,2,1.4,4.41-.3,5.43-5.13,2.61-14.26,3.68-19.27,1.89-8-2.12-10.76-4-14.37-10.16-2.89-6.53-2.58-11.7.55-15.64a20.35,20.35,0,0,1,11.63-8.77c11.22-3.42,21.12-.64,25.28,7.75.72,1,2,4.31,1.89,5.75,0,2.17-2.2,4.71-5,5.28-4.78,1-7.19,2.11-11.92,3.18-3.19.75-7.34,1.89-9.72,2.7C511.6,338.63,514.24,339.16,518.62,339.78Zm-10.85-11.31c1.91.06,8.29-1.9,12.06-2.47,2.45-.44,5.59-1.76,6.17-3.11-2.68-6.14-9.7-6.48-16.38-1.93C506.86,322.83,506.82,327.11,507.77,328.47Z" transform="translate(-221.79 -309.96)"/><path class="cls-1" d="M586.52,331c-3,5.72-10.59,17.07,1.07,19.29,3.91,1,9.45-4.51,11.8-8.28,1.86-3,3.79-9.26,5.73-11.29,1.83-1.83,7.46,0,9,1.74,2.46,2.79-.53,8.84-2.42,12.18a33,33,0,0,1-6.51,8c-7.29,6.54-14.39,8.88-27,2.24-4.58-2.73-8.37-6.79-7.68-12.75a72.71,72.71,0,0,1,2.67-10.3c2-5.76,4.58-11.42,14.1-7.93C589.71,326.18,587.76,328.81,586.52,331Z" transform="translate(-221.79 -309.96)"/><path class="cls-1" d="M609.66,380.55c-2.67,3.14-6.71,5.1-10.38,1.53-2.39-2.31.65-5.35,2.45-8.28,3.14-5.12,5.75-9.07,8.82-13.77a105.68,105.68,0,0,1,15.06-17.39c3.48-1.67,10.06,1.75,14.19,4.55,9.64,7.37,16,13.95,17.91,23.56a11.91,11.91,0,0,1-10.48,13.57c-4.32.57-11.63-.45-17.14-2.26-5.79-1.15-9.49-4.86-15.16-7.51C613.08,375.9,611.52,378.43,609.66,380.55Zm27.42-25.47c-4.51-2.94-4.56-2-7.39.47-4,3.65-8.75,8.48-10.74,12.25,7.11,5,16.21,8.49,22.32,6.62C650.12,371.8,646.5,361.15,637.08,355.08Z" transform="translate(-221.79 -309.96)"/><line class="cls-2" x1="400" y1="157.81" x2="600" y2="157.81"/><line class="cls-2" y1="157.81" x2="200" y2="157.81"/><path class="cls-1" d="M484.31,457.21c-.48.87-.93,1.68-1.32,2.34h6v16.26c0,1.77-.36,2.73-1.53,3.3s-2.85.6-5.19.6a14.42,14.42,0,0,0-1-3H473.9v1.65h-3.15v-9.42h11.76v7.44c1.05,0,2,0,2.34,0s.66-.15.66-.6v-9.21a2.31,2.31,0,0,1-2.4,1.2h-2.43c-2.67,0-3.21-.81-3.21-3.24v-1.92H475c-.27,3.33-1.38,5.25-5.94,6.3a7.23,7.23,0,0,0-1.29-2.1v12.84h-3.39v-20.1h5.34a20,20,0,0,0-.93-2.34H463.4V454h11.16v-2.25h3.63V454h11.46v3.24Zm-16.5,9.18c3.21-.63,3.9-1.71,4.11-3.78h-4.11Zm11.25-6.84c.36-.72.78-1.56,1.11-2.34h-7.5a14.32,14.32,0,0,1,1,2.34Zm.24,12h-5.4v2.52h5.4Zm6.21-8.94h-5v1.89c0,.63.09.72.6.72h1.56c.51,0,.63-.21.72-1.65a8.72,8.72,0,0,0,2.1.84Z" transform="translate(-221.79 -309.96)"/><path class="cls-1" d="M493.7,466.21h11.4v13.35h-3.57v-1.35h-4.47v1.5H493.7Zm3.36,3.42v5.16h4.47v-5.16Zm18.33-5.91H497.81V452.86h17.58Zm-3.63-7.44h-10.5v4.05h10.5Zm7.68,9.93v13.38h-3.6v-1.38h-4.77v1.5h-3.42v-13.5Zm-3.6,8.58v-5.16h-4.77v5.16Z" transform="translate(-221.79 -309.96)"/><path class="cls-1" d="M550.34,463.48v3.87h-27.6v-3.87Z" transform="translate(-221.79 -309.96)"/><path class="cls-1" d="M576.26,476.65c.93,0,1.14-.33,1.26-2.43a10.47,10.47,0,0,0,2.94,1.11c-.33,3.24-1.2,4.08-3.87,4.08h-4.38c-3.57,0-4.44-.84-4.44-3.54v-1.35H564.5c-.87,3-3.15,4.53-10.44,5.22a8.13,8.13,0,0,0-1.53-2.7c5.82-.33,7.65-1,8.4-2.52H557V464.29h19v10.23h-4.77v1.32c0,.72.21.81,1.44.81ZM567,463.54H554.09V452.68h12.45v2h-4.29v1h3.87v2.88a17,17,0,0,0,3.42-6.81l3.18.69a19.31,19.31,0,0,1-.75,2.22h8.13v2.76h-9.36a18.75,18.75,0,0,1-2,3.18,16.83,16.83,0,0,0-2.58-1.74v1.65h-3.87v1.08H567Zm-9.75-8.88v1h2.13v-1Zm5.73,2.85h-5.73v1.05H563Zm-5.73,4h2.13v-1.08h-2.13Zm3.12,5.61h12.09v-1H560.39Zm0,2.73h12.09v-1H560.39Zm0,2.79h12.09v-1H560.39Zm9-9.93V460h10v2.7Z" transform="translate(-221.79 -309.96)"/></svg>