<?xml version="1.0" encoding="utf-8"?>
<!-- Generator: Adobe Illustrator 25.2.3, SVG Export Plug-In . SVG Version: 6.00 Build 0)  -->
<svg version="1.1" id="レイヤー_1" xmlns="http://www.w3.org/2000/svg" xmlns:xlink="http://www.w3.org/1999/xlink" x="0px"
	 y="0px" viewBox="0 0 502.3 158.7" style="enable-background:new 0 0 502.3 158.7;" xml:space="preserve">
<style type="text/css">
	.st0{fill:#231815;}
</style>
<path class="st0" d="M0.2,35.6c8.7-11,14.2-22.7,16.5-35l5.7,2.8c1.9,1.3,1.2,2-2,2c-1.6,4.7-3.6,9.3-6,13.7l1.4,0.9
	c1.5,0.9,1.1,1.6-1.1,2v42.1c-2.5,2.3-3.7,2.4-3.7,0.3v-39c-2.8,4.1-6,7.9-9.6,11.4C0.1,37.3-0.3,36.9,0.2,35.6z M57.2,56.6
	c1.7,1,2.8,0.8,3.1-0.6l2.6-10.2c0.4-0.8,0.8-0.8,1.1,0l-0.8,10.3c0,1.3,0.3,2.6,0.9,3.7c1.3,1.3,1.4,2.4,0.3,3.1
	c-0.9,0.4-1.9,0.5-2.9,0.3c-3.8-0.4-8.4-3.6-13.7-9.7C43,47.2,39.4,37.8,37,25.1l-17.6,1.7L19,25.1l17.6-1.7
	c-0.9-7.3-1.3-14.6-1.1-21.9l4.8,0.9c1.5,0.9,1.1,1.6-1.1,2c0,6.3,0.3,12.5,1.1,18.8l16.5-1.4l3.1-4.6l5.7,3.7c1.1,1,1.1,1.6,0,2
	l-25.1,2C43.9,40.9,49.4,51.5,57.2,56.6z M55.8,15.1c0.1,1-0.5,1.9-1.5,2c-0.2,0-0.3,0-0.5,0c-0.8,0-1.4-0.6-2-1.7
	c-1.1-2.5-3.4-4.8-6.8-7.1c-0.8-0.8-0.6-1,0.6-0.9C52.3,9.5,55.7,12.1,55.8,15.1z"/>
<path class="st0" d="M105.8,32.4h-1.1c-2.5,2.7-4.8,5-7.1,7.1v16.8l15.7-3.1c1.3,0,1.6,0.4,0.9,1.1l-27.6,8.2
	c-0.4,3.2-1.4,3.5-3.1,0.9l-2.8-4.3l13.4-2V42.7c-7.4,5.5-14.2,9.2-20.5,11.1c-0.9,0-1-0.4-0.3-1.1C83.3,48,92.3,41.1,99.5,32.4
	H73.1v-1.7h29.6v-8.3H81.9v-1.7h20.8v-7.7H76.8v-1.7h25.9v-10l4.8,0.9c1.5,0.9,1.1,1.6-1.1,2v7.1h17.4l4.3-4.3l5.4,4
	c1.1,1,1.1,1.6,0,2h-27v7.7H121l3.7-3.7l4.5,3.4c1.1,0.9,1.1,1.6,0,2h-22.8v8.3H128l4.3-4.3l5.4,4c1.1,0.9,1.1,1.6,0,2h-30.4
	c2.5,5.9,5.1,10.4,8,13.7c3.2-3.6,6.4-7.5,9.4-11.7l3.7,2.6c1.5,1.1,0.9,1.7-2,1.7c-3.2,2.8-6.6,5.6-10.2,8.3
	c6.1,5.9,13.5,10.4,21.6,13.1c-3,0.8-4.8,2-5.4,3.7C118.1,55.8,109.3,45.3,105.8,32.4z"/>
<path class="st0" d="M175.9,65.2c-1,0-1.1-0.4-0.6-1.1c8-6.1,13.8-12,17.4-17.9c-4.7-6.7-8-16-9.7-27.9h-8.2v44.4
	c-2.5,2.3-3.7,2.4-3.7,0.3V49.2l-19.1,6c-0.6,2.7-1.4,3-2.6,1.1l-2.3-3.4l7.7-1.7V7.4h-7.4V5.7h34.4l4.3-4.3l5.4,4
	c1.1,1,1.1,1.6,0,2h-16.8v9.1h26.5l2.3-2.3l5.4,4c0.6,1.1-0.4,1.5-2.8,1.1c-1.4,9.4-4.5,18.4-9.1,26.7c4.6,4.6,10,8.4,15.9,11.1
	c-1.9,0.7-3.6,1.8-5.1,3.1c-4.9-3.1-9.2-6.9-12.8-11.4C189.7,55.5,183.2,61,175.9,65.2z M171,7.4h-12.5v13.1H171L171,7.4z M171,34.1
	V22.2h-12.5v11.9H171z M158.5,35.9v14.2l12.5-2.9V35.9H158.5z M184.4,18.2c2.5,11.4,5.8,19.7,10,25c3.6-6.8,6.2-15.2,7.7-25H184.4z"
	/>
<path class="st0" d="M226.8,42.7c-1.9,7.4-4.4,13.1-7.4,17.1c-1.1,0.8-1.5,0.6-1.1-0.6c2.5-4.9,4.2-11.7,5.1-20.2l4.8,1.7
	C229.9,41.6,229.5,42.3,226.8,42.7z M219.1,12.8c2,0.5,4,1.3,5.7,2.6l6.8-14.2l4.5,2c1.1,1,0.4,1.5-2.3,1.7L225.6,16
	c1.9,1.5,2.8,2.9,2.9,4.3c0,1.3-0.5,2-1.4,2s-1.6-0.6-2-1.7c-1.9-3.4-4-5.7-6.3-6.8C218.2,13.1,218.4,12.8,219.1,12.8z M239.6,15.1
	L228.5,31h9.7c-0.7-1.9-1.9-3.7-3.4-5.1c-0.2-0.6,0.1-0.8,0.9-0.6c4.7,2.8,7.1,5.6,7.1,8.2c0,1.5-0.6,2.3-1.7,2.3
	c-0.8,0-1.3-0.5-1.7-1.4c-0.2-0.8-0.5-1.6-0.9-2.3l-4.5,0.6v29.9c-2.5,2.3-3.7,2.4-3.7,0.3V33.3l-7.4,0.9c-0.8,2.3-1.5,2.8-2.3,1.4
	l-2-4.6h8.2L237,10.8l4.8,2.6C243,14.3,242.3,14.9,239.6,15.1z M241.3,52.9c-0.8,0-1.2-0.8-1.4-2.3c-0.6-5.3-2-9.1-4.3-11.4
	c-0.2-0.6,0.1-0.8,0.9-0.6c4.7,3.4,7.1,7,7.1,10.8C243.6,51.8,242.8,52.9,241.3,52.9L241.3,52.9z M244.1,28.2c1.6-2,2.4-4.5,2.3-7.1
	c0.2-0.8,0.5-0.8,0.9,0c0.4,1,0.5,2.1,0.6,3.1h18.8l3.7-12.2l4.3,2.3c1.3,1,0.8,1.5-1.7,1.7l-5.1,8.2h11.1l1.4-2l5.1,3.7
	c0.9,1.1,0.4,1.6-1.7,1.4c-1.1-0.4-2.6,0.3-4.3,2l-2.8,2.9c-0.6,0.2-0.8,0-0.6-0.6l2.8-5.7h-30.7c0.1,1.8-0.4,3.6-1.4,5.1
	c-0.4,0.7-1.2,1.1-2,1.1c-1,0-1.4-0.7-1.4-2C243.4,29.4,243.7,28.7,244.1,28.2L244.1,28.2z M284.6,10.8h-40.1V9.1h16.5V0l5.1,0.9
	c2.1,0.8,1.6,1.5-1.4,2.3v6h11.7l3.7-3.7l4.5,3.4C285.7,9.8,285.7,10.4,284.6,10.8L284.6,10.8z M247.3,58.4V34.1l4.3,2.3h9.4v-8.5
	l5.1,0.9c2.1,0.8,1.6,1.5-1.4,2.3v5.4h10.2l1.7-2.3l4,2.9c1.1,1,0.8,1.6-1.1,2v14.5c0.1,1.8-0.6,3.6-2,4.8c-0.8,0.8-1.8,1.2-2.9,1.1
	c-0.8,0-1.1-0.5-1.1-1.4s-0.6-1.6-1.7-2l-3.7-0.6c-0.8-0.4-0.8-0.8,0-1.1h5.7c1,0.1,1.9-0.5,2-1.5c0-0.2,0-0.3,0-0.5V38.1h-11.1
	v24.8c-2.5,2.3-3.7,2.4-3.7,0.3V38.1h-10v20C248.5,60.3,247.3,60.4,247.3,58.4L247.3,58.4z M250.1,13.1c-0.4-0.6-0.2-0.8,0.6-0.6
	c4.7,2.3,7.1,5,7.1,8.2c0,1.3-0.6,2-1.7,2c-0.8,0-1.3-0.6-1.7-1.7C254,18,252.5,15.1,250.1,13.1z"/>
<path class="st0" d="M311,15.1l4.3,2.9c1.9,1.7,1.2,2.4-2,2c-2,3.1-4.3,5.9-6.8,8.5l2.3,1.1c1.1,0.6,0.9,1.1-0.9,1.7v33
	c-2.5,2.3-3.7,2.4-3.7,0.3V31c-3.9,4-8.3,7.4-13.1,10.2c-1.1,0.2-1.3-0.2-0.6-1.1C299,33.3,306,24.8,311,15.1z M309.3,1.4l3.7,2.9
	c1.9,1.7,1.1,2.4-2.3,2c-6.5,5.9-12.3,10.2-17.6,13.1c-1.1,0.2-1.3-0.2-0.6-1.1C299,13.6,304.7,7.9,309.3,1.4L309.3,1.4z
	 M332.1,53.2c-6.2,5.4-13.6,9.2-21.6,11.1c-0.9,0-1.1-0.4-0.6-1.1c7.4-2.6,14.2-6.8,19.9-12.2c-3.4-4.2-6-9-7.7-14.2H313V35h28.2
	l2.6-3.1l4.8,3.7c1.1,1.3,0.1,1.8-3.1,1.4c-2.9,5-6.4,9.6-10.5,13.7c5.9,4.4,13.5,7.5,22.8,9.4c-3.6,0.9-5.6,2.3-6,4
	C345.5,62.3,338.9,58.7,332.1,53.2L332.1,53.2z M325.5,6.8v7.4c0,8.7-4,15-12,18.8c-1.1,0.2-1.3-0.2-0.6-1.1
	c5.9-3.8,8.8-9.8,8.8-17.9V2.8l4,2.3h10.5l1.7-2.3l4,2.9c1.1,1,0.8,1.6-1.1,2v14.2c-0.1,0.5,0.3,1.1,0.8,1.1c0.1,0,0.2,0,0.3,0h8.3
	c1.7,0,2.7-0.7,3.1-2l1.7-6.3c0.4-0.4,0.7-0.4,0.9,0v6.3c-0.1,0.8,0.4,1.6,1.1,2c1.3,0.6,1.3,1.4,0,2.6c-0.6,0.6-2.3,0.9-5.1,0.9
	h-11.4c-2.3,0-3.4-1.1-3.4-3.4V6.8L325.5,6.8z M323.8,36.7c1.7,4.5,4.6,8.5,8.2,11.7c3.4-3.5,6.4-7.4,8.8-11.7H323.8z"/>
<path class="st0" d="M380.2,27.6V31c7.8,1.9,11.7,4.6,11.7,8c0,1.3-0.5,2-1.4,2c-0.9-0.1-1.8-0.6-2.3-1.4c-2.1-3-4.8-5.4-8-7.1v31.6
	c-2.5,2.3-3.7,2.4-3.7,0.3V31.6c-3.7,3.9-7.9,7.4-12.5,10.2c-0.8,0-1-0.3-0.6-0.9c8.5-7.4,15.9-16.2,21.7-25.9h-18.5v-1.7h10V0.3
	l4.8,0.9c1.5,0.6,1.1,1.2-1.1,2v10.2h4.2l3.1-3.1l4.5,4.6c1.1,1.3,0.2,1.8-2.8,1.4C386.6,19.6,383.6,23.4,380.2,27.6z M423.2,58.1
	l4.2-4.3l5.1,4c0.8,0.9,0.5,1.6-0.8,2h-46.1v-1.7h20.2V26.8h-16v-1.7h15.9V1.4l5.1,0.9c2.1,0.4,1.6,1.1-1.4,2.3v20.5h11.4l3.7-3.7
	l4.6,3.4c1.1,1,1.1,1.6,0,2h-19.6v31.3L423.2,58.1z"/>
<path class="st0" d="M440.2,59.5l12-2.9V35h-15.4v-1.7h15.4V2.8l4.3,2h27l3.7-3.7l4.5,3.4c1.1,0.9,1.1,1.6,0,2h-35.8v8h25l3.1-3.1
	l4,2.9c1.1,1,1.1,1.6,0,2h-32.1v7.1h25l3.1-3.1l4,2.8c1.1,0.9,1.1,1.6,0,2h-32.1v8.3h35.9l4.3-4.3l5.4,4c1.1,1,1.1,1.6,0,2h-32.2
	c1.2,4.6,3.4,8.8,6.3,12.5l10.8-11.1l4,3.7c1.1,1.1,0.1,1.5-3.1,1.1l-10.8,7.1c4.9,5.7,13.1,9.4,24.5,11.1c-2,0.7-3.7,2.3-4.6,4.3
	c-9.3-2.7-16.4-6.6-21.1-11.7l-27.6,10.2c-0.2,3.6-1,4.6-2.6,3.1L440.2,59.5z M467.2,35h-11.3v20.8l18.5-4.8
	C471,46.2,468.5,40.7,467.2,35L467.2,35z"/>
<g>
	<path d="M214.9,109.2c13.5,1.9,10.4,11.3,5.8,8.5c-0.8-2.9-3.8-6.1-6.5-7.9L214.9,109.2z M231.3,109.1c-2.3,7.9-6.7,22.3-7.6,25.3
		c-0.5,2-0.8,4.1-0.8,5.8c0.1,3,1.9,6.5,1.6,12.2c-0.1,2.9-1.4,4.7-3.6,4.7c-1.1,0-1.9-1.3-2-3.5c1-7.1,0.6-12.7-0.8-13.7
		c-0.9-0.7-1.9-0.8-3.3-1v-1.5h2.9c0.8,0,1.1,0,1.6-1.3c1.1-2.4,1.1-2.4,10.6-27L231.3,109.1z M217.6,94.4
		c14.4,2.4,11.6,11.9,6.8,9.1c-1.2-3-4.6-6.5-7.5-8.5L217.6,94.4z M243.4,133.7c13.1,4.8,9.7,13.8,5.6,10.7
		c-0.5-3.1-3.1-6.9-5.6-9.3v20.7c-0.1,0.3-1.4,1.4-3.4,1.4h-0.6v-19c-3.1,5.4-7.2,10.2-12.4,14.1l-0.8-1.1
		c5.8-5.8,10-13.3,12.5-21.3h-3.6v2.5c0,0.4-1.6,1.2-3.1,1.2h-0.6v-22l4.1,1.9h3.9v-7.3h-9.5l-0.5-2.1h10.1v-9.8l6.4,0.7
		c-0.1,0.9-0.8,1.5-2.3,1.8v7.3h2.5l3-3.8c0,0,3.4,2.7,5.6,4.7c-0.1,0.8-0.9,1.1-1.8,1.1h-9.3v7.3h3.8l2-2.3l4.6,3.5
		c-0.3,0.4-1.3,0.9-2.4,1.1v15.9c0,0.4-1.9,1.3-3.1,1.3h-0.5v-3.2h-4.3V133.7z M239.6,127.8v-12.4h-4.5v12.4H239.6z M243.3,115.5
		v12.4h4.5v-12.4H243.3z M245.7,156.2c5.7-3.1,11.4-8.4,14.1-12.8l5.7,3.6c-0.5,0.6-1.1,0.9-2.6,0.4c-3.6,3.6-9.7,7.6-16.5,9.7
		L245.7,156.2z M272.9,95c0,0,3.6,2.7,5.7,4.7c-0.2,0.8-0.9,1.1-1.8,1.1h-9.3c-1.4,2.7-3,5.7-4.3,8h6.9l2.1-2.7l5,3.8
		c-0.5,0.5-1.2,0.9-2.7,1.2v31.4c0,0.3-1.6,1.2-3.5,1.2h-0.6v-3.5h-11.4v2.7c0,0.3-1.4,1.4-3.5,1.4h-0.6v-37.8l4.9,2.1h1
		c0.5-2.3,1.2-5.4,1.6-8h-10.2l-0.5-2.1h18.1L272.9,95z M259.1,110.7v7.8h11.4v-7.8H259.1z M270.5,120.5h-11.4v7.8h11.4V120.5z
		 M270.5,138.3v-8h-11.4v8H270.5z M266.5,144c15.5,5.4,12.4,15.4,7.8,12.2c-1.1-3.8-5.1-8.8-8.5-11.7L266.5,144z"/>
	<path d="M343.7,103.2c-0.5,0.5-1.6,1.1-3,1.4v49.2c-0.1,0.5-2.2,1.6-3.8,1.6h-0.7v-5.4h-42.4v4.1c0,0.5-1.6,1.7-3.6,1.7h-0.8V99.3
		l4.9,2.3h41.2l2.6-3L343.7,103.2z M293.9,103.6v20.6h18.6v-20.6H293.9z M293.9,147.9h18.6v-21.8h-18.6V147.9z M317,103.6v20.6h19.2
		v-20.6H317z M336.2,147.9v-21.8H317v21.8H336.2z"/>
	<path d="M403.4,116.4c2.5,13,9.7,26.8,30.1,36.2l-0.1,0.8c-2.4,0.3-4.1,1.2-4.7,3.8c-19.1-10.5-24.6-26.9-26.6-40.6
		c-1.9,16-8.2,30.2-31.8,40.6l-0.8-1.2c20-10.7,25.9-24.1,27.7-39.4h-26.4l-0.6-2h27.3c0.5-6.4,0.5-13.1,0.5-20.1l7.3,0.8
		c-0.2,1-0.8,1.7-2.3,2c-0.1,5.9-0.2,11.7-0.8,17.4h19.8l3.8-4.7c0,0,4.2,3.3,6.7,5.6c-0.1,0.8-0.8,1.1-1.8,1.1H403.4z"/>
	<path d="M494.5,101.7c0,0,4,3,6.4,5.2c-0.1,0.8-0.8,1.1-1.8,1.1h-27v12.5h16l3.4-4.3c0,0,3.9,3,6.4,5.2c-0.2,0.8-0.9,1.1-1.9,1.1
		h-52l-0.6-2.1h24.2V108h-27.6l-0.6-2h28.2V94.1l7.1,0.8c-0.1,1-0.9,1.7-2.5,2v9.2H491L494.5,101.7z M488.1,129l5.6,4.3
		c-0.4,0.5-1.6,1.2-3,1.4V155c-0.1,0.4-2.3,1.4-3.8,1.4h-0.7v-4.2h-32.1v3.3c0,0.4-2,1.4-3.8,1.4h-0.7v-27.5l4.9,2.3h30.9L488.1,129
		z M486.2,150.2v-16.4h-32.1v16.4H486.2z"/>
</g>
</svg>
