<svg id="レイヤー_1" data-name="レイヤー 1" xmlns="http://www.w3.org/2000/svg" viewBox="0 0 510 89.72"><defs><style>.cls-1{fill:#231815;}.cls-2{fill:#d0121b;}</style></defs><title>logo</title><path class="cls-1" d="M538.9,423.68a17,17,0,0,0-1.81-.09H526.86a15.65,15.65,0,0,0-1.59.07l-1,.07.09-.63a12.17,12.17,0,0,0,.15-2.35v-7a10.46,10.46,0,0,0-.15-1.93l-.1-.66.66.07a19.32,19.32,0,0,0,2.32.1h9.31a15.32,15.32,0,0,0,2.31-.1l.68-.07-.11.67a12.18,12.18,0,0,0-.15,2.34v6.6a12.75,12.75,0,0,0,.15,2.35l.1.65Zm-4.12-2.41v-7.64H529v7.64Zm-12.11.34a17,17,0,0,0-1.81-.09h-6.29c-.68,0-1,0-1.59.07l-1,.07.09-.63a11.87,11.87,0,0,0,.15-2.35V399.4a10.19,10.19,0,0,0-.15-1.93l-.1-.65.66.07A22.49,22.49,0,0,0,515,397h5.37a17,17,0,0,0,2.31-.09l.68-.08-.11.67a12.18,12.18,0,0,0-.15,2.34v8.69l1-.55c2.78-2.09,4.09-4.88,4.46-9.53h-3c-.56,0-.66,0-1.51.12l-.57.06V395.9l.59.08a12.09,12.09,0,0,0,1.82.13h9.92a27.51,27.51,0,0,0,3.64-.13l.56-.06v1.57a74.4,74.4,0,0,1-.63,10.33c-.22,1.42-.67,2.73-2.5,2.73-.92,0-1.58-.15-4.45-1.05l-.84-.28-1.36-.18-.29-2.5.7.16a16.66,16.66,0,0,0,3.81.4c.4,0,.51,0,.53-.05a.66.66,0,0,0,0-.17,80.66,80.66,0,0,0,.6-8.45h-2.52c-.54,5.43-2.73,8.62-7.69,11.28l-1.29.86-1.08-1.38v9.49a12.75,12.75,0,0,0,.15,2.35l.1.65Zm-3.84-2.41v-9.29H516.6v9.29Zm0-11.61V399.3H516.6v8.29Z" transform="translate(-407.36 -376.27)"/><path class="cls-1" d="M520.35,397.49a18.2,18.2,0,0,0,2.37-.09,12.47,12.47,0,0,0-.16,2.42v18.86a12.72,12.72,0,0,0,.16,2.42c-.66-.06-1.17-.09-1.86-.09h-6.29c-.82,0-1.1,0-2,.09a13.25,13.25,0,0,0,.15-2.42V399.4a11.44,11.44,0,0,0-.15-2,22.56,22.56,0,0,0,2.36.09Zm-4.26,1.3v9.31h3.25v-9.31Zm0,10.6v10.32h3.25V409.39Zm9.85-11.48h-.25c-.66,0-.73,0-1.64.13v-1.55a12.78,12.78,0,0,0,1.89.13h9.92a28.43,28.43,0,0,0,3.69-.13v1a73.22,73.22,0,0,1-.63,10.26c-.25,1.68-.79,2.29-2,2.29-.85,0-1.52-.16-4.29-1l-.89-.29-1-.13-.16-1.39a17.26,17.26,0,0,0,3.92.42c.79,0,1-.13,1.07-.68a79.71,79.71,0,0,0,.6-9h-3.5c-.44,5.5-2.53,8.7-7.49,11.36l-.91.61-.79-1,.91-.49c3-2.26,4.42-5.37,4.74-10.48Zm10.64,13.91a16.4,16.4,0,0,0,2.37-.1,12.64,12.64,0,0,0-.16,2.43v6.6a12.72,12.72,0,0,0,.16,2.42c-.66-.06-1.17-.09-1.86-.09H526.86c-.82,0-1.11,0-2,.09a12.28,12.28,0,0,0,.16-2.42v-7a10.68,10.68,0,0,0-.16-2,19.67,19.67,0,0,0,2.37.1Zm-8.05,1.29v8.67h6.76v-8.67Z" transform="translate(-407.36 -376.27)"/><path class="cls-1" d="M550.26,424.62l.08-.88a9.61,9.61,0,0,0,.13-1.57v-7.8A58.61,58.61,0,0,1,547,419.6l-1,1.43-2-1.24,1-1.35a56.5,56.5,0,0,0,4.33-11.77h-2.58c-.56,0-.66,0-1.51.12l-.57.06v-2.71l.59.08a12,12,0,0,0,1.82.12h3.28v-3.66l-1.51.19-1.88.2-1.67.16-.84-2,2-.32a40.13,40.13,0,0,0,8.07-3.34l1.44-1,3.55,3.91.37,0a22.43,22.43,0,0,0,2.32.09h7.73a17,17,0,0,0,2.31-.09l.66-.08-.09.66a13.73,13.73,0,0,0-.16,2.48v18.89A13.73,13.73,0,0,0,573,423l.09.65-.65-.07a17,17,0,0,0-1.81-.09h-8.65a16,16,0,0,0-1.6.07l-1,.07.1-.79a13.28,13.28,0,0,0,.13-2.32v-7l-3.1,3.24-.5-2c-.42-1.05-.73-1.76-1.21-2.71v10.15A12.85,12.85,0,0,0,555,424l.08.58Zm18-3.48V401H564v20.19Zm-8.69-9.42V401.6a13.53,13.53,0,0,0-.12-2.25l0-.36-1.67.36c-.62.13-1.25.26-1.87.42l-1.1.21v4.37h2.36a13.45,13.45,0,0,0,1.83-.12l.57-.07v2.71l-.57-.07a11.93,11.93,0,0,0-1.83-.13h-2.36v1.11a43.78,43.78,0,0,1,4.45,3.68Z" transform="translate(-407.36 -376.27)"/><path class="cls-1" d="M551,412.34a50.7,50.7,0,0,1-4.36,7l-.69,1-1.08-.68.7-.94a57.29,57.29,0,0,0,4.54-12.55h-3.15c-.67,0-.73,0-1.65.13v-1.55a14.56,14.56,0,0,0,1.9.13H551v-4.76l-.29,0-1.8.22-1.86.2-1.29.13-.45-1.07,1.43-.23a40.7,40.7,0,0,0,8.21-3.39l1.1-.75,3,3.3-1.36.29c-.63.13-1.26.26-1.89.42l-1.49.29v5.31h2.88a14.42,14.42,0,0,0,1.89-.13v1.55a12.6,12.6,0,0,0-1.89-.13h-2.88V408a44.92,44.92,0,0,1,4.65,3.81l.88.65-3,3.17-.29-1.1a32.68,32.68,0,0,0-2.21-4.59v12.19a14.83,14.83,0,0,0,.16,1.94h-3.63l0-.32a9.84,9.84,0,0,0,.13-1.62Zm21.31,8.15a14.44,14.44,0,0,0,.16,2.55c-.66-.06-1.17-.09-1.86-.09h-8.65c-.83,0-1.11,0-2,.09a14.93,14.93,0,0,0,.16-2.55V401.6a15.16,15.16,0,0,0-.16-2.55,22.65,22.65,0,0,0,2.37.09h7.73a18.2,18.2,0,0,0,2.37-.09,14.37,14.37,0,0,0-.16,2.55Zm-3.47-20.05h-5.31v21.21h5.31Z" transform="translate(-407.36 -376.27)"/><path class="cls-1" d="M588.77,424l.13-.62a6.61,6.61,0,0,0,.15-1.51v-8.33A49.42,49.42,0,0,1,580,417.2a3.68,3.68,0,0,0-1.21.51l-.5.34L577,415.36l.93.12c1.31,0,7-2.77,10.49-5.27a40.36,40.36,0,0,0,7.7-6.9H582a5.87,5.87,0,0,0-1.47.15l-.62.13v-2.88l.62.13A8.15,8.15,0,0,0,582,401h7v-3.3a6.53,6.53,0,0,0-.15-1.52l-.12-.61h4.93l-.11.6a9.42,9.42,0,0,0-.15,1.53V401h8.81v2.16l-.12.14a39.86,39.86,0,0,1-7.21,6.71,44,44,0,0,1,9.7,4.7l.43.3-2.88,3.92-.42-.44a33.85,33.85,0,0,0-8.31-6v9.45a9.78,9.78,0,0,0,.15,1.52l.12.61Z" transform="translate(-407.36 -376.27)"/><path class="cls-1" d="M589.56,397.69a7,7,0,0,0-.16-1.62h3.7a9.44,9.44,0,0,0-.16,1.62v3.81h8.81V403a39.68,39.68,0,0,1-8,7.21,43.94,43.94,0,0,1,10.55,4.95l-2.21,3a34.59,34.59,0,0,0-9.19-6.5v10.28a9.25,9.25,0,0,0,.16,1.62h-3.7a6.85,6.85,0,0,0,.16-1.62v-9.18a47.65,47.65,0,0,1-9.72,4,4.32,4.32,0,0,0-1.36.59l-.6-1.3c1.23.16,7.32-2.81,10.86-5.37a38.87,38.87,0,0,0,8.46-7.82H582a6.44,6.44,0,0,0-1.57.16v-1.62a8.62,8.62,0,0,0,1.57.16h7.55Z" transform="translate(-407.36 -376.27)"/><path class="cls-1" d="M609.29,407.61l.69.27a5.29,5.29,0,0,0,1.24.13h22a5.85,5.85,0,0,0,1.32-.15l.64-.16v3.55l-.61-.12a6.85,6.85,0,0,0-1.35-.16h-22a3.5,3.5,0,0,0-1.21.12l-.72.32Z" transform="translate(-407.36 -376.27)"/><path class="cls-1" d="M634.68,410.62a8.56,8.56,0,0,0-1.45-.16h-22a4.36,4.36,0,0,0-1.42.16v-2.26a5.23,5.23,0,0,0,1.42.16h22a6.71,6.71,0,0,0,1.45-.16Z" transform="translate(-407.36 -376.27)"/><path class="cls-1" d="M663.86,423.15a28.26,28.26,0,0,0-1.78-5.72c-5.94,1.8-13.3,3.77-18.89,5.05a10,10,0,0,0-1.32.39l-.75.33-1.3-5h1.11l.34,0,.3,0,.6-.07c.65-.05,1.15-.11,1.65-.18,3.06-7.36,6.77-18.42,7-20.93l.07-.69,5.05,2.1-.28.5a15.53,15.53,0,0,0-.67,1.44c-1.88,4.52-5,11-8.28,17.16l1-.17c6.44-.94,10.26-1.57,13.27-2.19A21.16,21.16,0,0,0,657,409l0,0-.58-.59,2.44-1.92.29.52a3.56,3.56,0,0,0,.61.7,38.59,38.59,0,0,1,7.82,11.81c.27.65.52,1.2.62,1.39l.21.43-4.34,2.5Z" transform="translate(-407.36 -376.27)"/><path class="cls-1" d="M641,418.74a6.27,6.27,0,0,1,.64-.06l.6-.07c.75-.06,1.32-.13,1.95-.22,3.13-7.48,6.92-18.79,7.17-21.35l3.88,1.62a15.78,15.78,0,0,0-.69,1.49c-1.93,4.62-5.24,11.48-8.75,18l1.08-.16,1-.16c7.07-1,10.89-1.69,13.92-2.33-1.39-3-3.22-5.86-4.48-6.89l-.16-.16,1.51-1.2a4,4,0,0,0,.7.81,38,38,0,0,1,7.7,11.64c.29.68.54,1.23.64,1.42L664.36,423a28.73,28.73,0,0,0-2-6.24c-6.13,1.88-13.77,3.91-19.29,5.18a9,9,0,0,0-1.39.42l-.22.09-1-3.75Z" transform="translate(-407.36 -376.27)"/><path class="cls-1" d="M675.48,420.79h.74c2.47,0,7.31-2.76,9.6-5.41,3.1-3.33,4.83-7.74,5.3-13.48H674.3a5.87,5.87,0,0,0-1.47.15l-.62.13v-2.88l.62.13a9.16,9.16,0,0,0,1.47.15h18a4.06,4.06,0,1,1,7.7-1.72,4,4,0,0,1-3.76,4.08c-1,11.66-6.44,17.86-18.1,20.71a4.7,4.7,0,0,0-1.16.4l-.52.29Zm20.48-25a2.08,2.08,0,0,0-2,2.11,2,2,0,1,0,2-2.11Z" transform="translate(-407.36 -376.27)"/><path class="cls-1" d="M672.73,399.92a8.62,8.62,0,0,0,1.57.16h18.92a3.56,3.56,0,0,1-.76-2.23,3.52,3.52,0,1,1,7,0,3.55,3.55,0,0,1-3.72,3.59c-.89,11.67-6.23,17.88-17.75,20.7a5.4,5.4,0,0,0-1.29.45l-.51-1.29c2.56,0,7.58-2.82,10-5.6,3.25-3.49,5-8.21,5.46-14.33H674.3a6.46,6.46,0,0,0-1.57.17Zm20.74-2a2.51,2.51,0,1,0,2.49-2.62A2.59,2.59,0,0,0,693.47,397.88Z" transform="translate(-407.36 -376.27)"/><path class="cls-1" d="M706.25,399.24a6.53,6.53,0,0,0-.15-1.52l-.12-.61h4.93l-.11.6a9.52,9.52,0,0,0-.15,1.53v18.31A20.41,20.41,0,0,0,724.77,409a9.81,9.81,0,0,0,1.66-3.58l.1-.74,2.4,1.32-.35.47a6.09,6.09,0,0,0-.58,1.08c-4,9.47-10.78,14.25-21.2,15l-.55,0Z" transform="translate(-407.36 -376.27)"/><path class="cls-1" d="M706.76,399.24a7.06,7.06,0,0,0-.16-1.62h3.7a9.54,9.54,0,0,0-.16,1.62v18.89a20.85,20.85,0,0,0,15.06-8.9,10.11,10.11,0,0,0,1.74-3.78l1.23.68a5.78,5.78,0,0,0-.63,1.16c-4,9.32-10.52,14-20.78,14.75Z" transform="translate(-407.36 -376.27)"/><path class="cls-1" d="M732.74,407.61l.69.27a5.18,5.18,0,0,0,1.24.13h22a5.94,5.94,0,0,0,1.33-.15l.64-.16v3.55l-.62-.12a6.85,6.85,0,0,0-1.35-.16h-22a3.5,3.5,0,0,0-1.21.12l-.72.32Z" transform="translate(-407.36 -376.27)"/><path class="cls-1" d="M758.13,410.62a8.56,8.56,0,0,0-1.45-.16h-22a4.41,4.41,0,0,0-1.42.16v-2.26a5.29,5.29,0,0,0,1.42.16h22a6.71,6.71,0,0,0,1.45-.16Z" transform="translate(-407.36 -376.27)"/><path class="cls-1" d="M766.09,423.52l.13-.61a6.77,6.77,0,0,0,.14-1.52V398.46a7.17,7.17,0,0,0-.14-1.52l-.12-.61H771l-.11.61a9.41,9.41,0,0,0-.15,1.52v6.73a37,37,0,0,1,13,5.56l1.19.76L782,415.72l-.43-.49a29.86,29.86,0,0,0-10.82-7.49v13.65a8.61,8.61,0,0,0,.15,1.52l.12.61Z" transform="translate(-407.36 -376.27)"/><path class="cls-1" d="M766.72,423a6.8,6.8,0,0,0,.16-1.62V398.46a6.92,6.92,0,0,0-.16-1.61h3.69a10.38,10.38,0,0,0-.15,1.61v7.15a36.67,36.67,0,0,1,13.19,5.56l.76.49L782,414.89A30.3,30.3,0,0,0,770.26,407v14.39a10.07,10.07,0,0,0,.15,1.62Z" transform="translate(-407.36 -376.27)"/><path class="cls-1" d="M805.59,424.62l.09-.88a10.8,10.8,0,0,0,.12-1.57v-6.36a23.68,23.68,0,0,1-6.13,6.54l-1,.89-1.49-1.64,1.21-1A25.91,25.91,0,0,0,804,410.17h-3.25l1.07,1.05-3.7,3.38-.53-1.87-.38-1c-.17-.45-.33-.86-.49-1.25v11.64a12.85,12.85,0,0,0,.15,1.87l.08.58h-4.69l.09-.88a9.61,9.61,0,0,0,.13-1.57V414a48.06,48.06,0,0,1-2.51,5l-.57,1.22L787.25,419l.87-1.06a67.58,67.58,0,0,0,3.49-14.22h-1.32c-.56,0-.66,0-1.51.12l-.57.06v-2.68l.59.09a10.38,10.38,0,0,0,1.82.09h1.86v-4.41a9.5,9.5,0,0,0-.16-1.87l-.07-.58H797l-.08.58a13,13,0,0,0-.15,1.87v4.41h1.07a12.71,12.71,0,0,0,1.83-.1l.57-.06v1a33.26,33.26,0,0,0,.88-5.25v-1.88l4.64.91-.57,1.9c-.27,1.07-.55,2.05-.83,2.83h1.5v-3.79a10.12,10.12,0,0,0-.15-1.87l-.08-.58h4.93l-.08.58a13,13,0,0,0-.15,1.87v3.79h3.84a13.35,13.35,0,0,0,1.83-.12l.58-.08v2.72l-.58-.07a11.84,11.84,0,0,0-1.83-.13h-3.84v4.8h5.07a12,12,0,0,0,1.83-.13l.58-.07v2.71l-.58-.07a13.16,13.16,0,0,0-1.83-.12h-4.22a24.4,24.4,0,0,0,6.44,7.6l1.29.75-2.72,4.7L815,421.71a29,29,0,0,1-4.7-7.58v8a12.85,12.85,0,0,0,.15,1.87l.08.58Zm-8.87-18.45c1.13,1.07,1.57,1.5,2.13,2.06v-.59l.59.08.44.06-1.63-.89.85-1.26c.23-.57.45-1.18.65-1.82l-.13,0a13.26,13.26,0,0,0-1.83-.12h-1.07Zm3.61,1.65c.3,0,.6,0,.93,0h4.54v-4.8h-2.48a21,21,0,0,1-2.25,3.65Z" transform="translate(-407.36 -376.27)"/><path class="cls-1" d="M806.31,396.94a10.23,10.23,0,0,0-.16-1.94h3.76a14.11,14.11,0,0,0-.16,1.94v4.31h4.36a14.56,14.56,0,0,0,1.9-.13v1.55a12.65,12.65,0,0,0-1.9-.13h-4.36v5.82h5.59a12.91,12.91,0,0,0,1.9-.13v1.55a14.11,14.11,0,0,0-1.9-.13h-5.08a24.93,24.93,0,0,0,7,8.54l.88.52-2.08,3.59-.7-.91a28.38,28.38,0,0,1-5.62-10.15v10.93a14.83,14.83,0,0,0,.16,1.94h-3.76l0-.32a11,11,0,0,0,.12-1.62v-8.25a23.22,23.22,0,0,1-6.94,8l-.67.59-.79-.88.82-.68a26.54,26.54,0,0,0,5.91-11.19l0-.13h-3.41a11.69,11.69,0,0,0-1.61.1c.25.29.41.45.73.78l.69.68-2.68,2.45-.32-1.1-.38-1c-.53-1.39-1-2.42-1.48-3.55v14.13a13.24,13.24,0,0,0,.16,1.94h-3.54l0-.32a9.84,9.84,0,0,0,.13-1.62V411.34a47.31,47.31,0,0,1-3.48,7.37l-.34.74-1.14-.64.54-.65a68.79,68.79,0,0,0,3.63-15h-1.83c-.67,0-.73,0-1.65.13v-1.52a10.43,10.43,0,0,0,1.9.1H793v-4.92a10.23,10.23,0,0,0-.16-1.94h3.54a12.67,12.67,0,0,0-.16,1.94v4.92h1.58a13.65,13.65,0,0,0,1.89-.1v1.52a14.08,14.08,0,0,0-1.89-.13h-1.58v3.24c1.77,1.68,2,1.87,3.16,3.07v-1.23a12.78,12.78,0,0,0,1.89.13h5v-5.82H803a20.69,20.69,0,0,1-2.34,3.85l-.6.9-1.07-.58.57-.84a31.88,31.88,0,0,0,2-8.86v-1.3l3.47.68-.41,1.36a29.25,29.25,0,0,1-1.07,3.5h2.74Z" transform="translate(-407.36 -376.27)"/><path class="cls-1" d="M848.24,424.75c-1.84,0-4-1.87-6-5.12-2.56-4.13-4-9.3-4.65-16.26H824c-.56,0-.66,0-1.51.12l-.57.06v-2.71l.59.08a12.09,12.09,0,0,0,1.82.13h13c-.07-1-.13-2.16-.19-4.17l-.16-2.4h5.13l-.07,1.3,1.1-1.07.91.69a33.88,33.88,0,0,1,4.12,2.4l1.36.75-2.32,2.5h1a12,12,0,0,0,1.83-.13l.58-.07v2.71l-.57-.07a12.05,12.05,0,0,0-1.84-.13h-6a35.4,35.4,0,0,0,2.66,11.22,19,19,0,0,0,3.1,5c.13-.75.25-2.56.34-4.07l0-2.09,2.61.67-.25,1.76c.16,1.91.19,2.88.19,4.09a9.24,9.24,0,0,1-.21,2.66A2.53,2.53,0,0,1,848.24,424.75Zm-2.85-23.69,0-.05a44,44,0,0,0-2.74-3.91l-.58-.53v.3c0,2,0,2.42.1,4.19Zm-23.62,17.88h2l2-.19.46,0,1.69-.15.39-.05v-8.09h-3c-.56,0-.66,0-1.51.12l-.57.06V407.9l.59.08a12.09,12.09,0,0,0,1.82.13h10a12.1,12.1,0,0,0,1.83-.13l.58-.07v2.71l-.58-.07a11.93,11.93,0,0,0-1.83-.13h-2.64V418c1.39-.17,3.76-.52,5.24-.78l1.43-.38.58,2.3-1.54.28c-4.59,1.68-9.36,3.18-13.43,4.23l-1.71.67Z" transform="translate(-407.36 -376.27)"/><path class="cls-1" d="M824.34,402.86h-.25c-.67,0-.73,0-1.65.13v-1.55a13,13,0,0,0,1.9.13h13.58c-.1-1.23-.16-2.43-.22-4.69l-.13-1.88h4l-.09,1.85c0,2.2,0,2.52.12,4.72h6.63a12.91,12.91,0,0,0,1.9-.13V403a12.65,12.65,0,0,0-1.9-.13h-6.56a36.49,36.49,0,0,0,2.74,11.94c1.11,2.55,3.1,5.46,3.76,5.46.32,0,.41-.68.66-4.72l0-1.46,1.52.39-.19,1.36c.16,1.91.19,2.88.19,4.11a8.77,8.77,0,0,1-.19,2.52,2,2,0,0,1-1.93,1.78c-1.64,0-3.72-1.81-5.62-4.88-2.59-4.18-4-9.45-4.61-16.5Zm8.08,15.72c1.27-.13,4.17-.55,5.84-.84l1-.26.32,1.26-1,.2c-4.52,1.64-9.32,3.17-13.45,4.23l-1.24.49-1.35-4.21h1.29l2-.19c.76-.07,1.2-.1,2.15-.2l.85-.09v-9.06h-3.47c-.66,0-.73,0-1.64.13v-1.55a12.78,12.78,0,0,0,1.89.13h10a12.78,12.78,0,0,0,1.89-.13V410a12.43,12.43,0,0,0-1.89-.13h-3.16Zm11.4-22.74a34.43,34.43,0,0,1,4.11,2.4l.82.45-2.59,2.78-.35-.71a44.77,44.77,0,0,0-2.81-4l-.6-.55.82-.81Z" transform="translate(-407.36 -376.27)"/><path class="cls-1" d="M877.76,423.3c-.3-.62-.63-1.21-1-1.82-6.94,1.19-12.86,2.09-16.72,2.56l-2.15.36-1.29-5.21,3.19.2h2c.71-1.64,1.76-4.29,2.34-6h-6.24a11.52,11.52,0,0,0-1.49.1l-.57.06v-2.66l.59.09a9.48,9.48,0,0,0,1.76.09h22.61a9.63,9.63,0,0,0,1.28-.09l.59-.08v2.63l-1-.07a4.07,4.07,0,0,0-.71-.07H869.84a64.21,64.21,0,0,1-4.33,5.92l1.76,0c1.83,0,4.92-.1,7.7-.2h.41c-.57-.89-1.16-1.74-1.76-2.53l-1-1,2.17-1.6,1,.9c1.66,1.36,3.78,3.32,6,5.51l1.41,1.36L878.45,425Zm2.81-14.38c-1.35-.74-2.56-1.46-3.65-2.2v1.48l-1-.07a4.07,4.07,0,0,0-.71-.07H863.05a11.41,11.41,0,0,0-1.49.1l-.57.06v-1.4c-.89.48-1.85.95-2.87,1.42l-.29.13-.18.08c-.22.11-.35.18-.72.34l-1.42.77-1.3-2.13,1.67-.66c4.6-2.69,8.71-7,10.48-11.1l.52-1.7,5.44,1.71-1,1.66c2.58,2.85,6.81,5.47,11.67,7.23l1.92.43-2.7,5Zm-5.52-3.17.49,0a21.15,21.15,0,0,1-5.66-6.23,24.94,24.94,0,0,1-7,6.24Z" transform="translate(-407.36 -376.27)"/><path class="cls-1" d="M870.69,397.4c2.62,3,7,5.82,12.16,7.66l1.29.29L882,409.27l-1.17-.78c-5.59-3-8.72-5.89-10.93-9.93-2.81,3.91-6.34,6.6-12,9.22l-.28.13-.16.06a8.15,8.15,0,0,1-.76.36l-1,.55-.72-1.2,1.13-.45c4.74-2.75,8.91-7.15,10.74-11.39l.38-1.22,4.32,1.35Zm-1.14,15.52a60.72,60.72,0,0,1-4.83,6.57l-.28.38,2.84,0c1.83,0,4.89-.1,7.7-.19l1.3,0a36.61,36.61,0,0,0-2.27-3.36l-.64-.65,1.36-1,.66.62c1.74,1.42,3.86,3.39,5.94,5.49l1,.94-3.63,2.56-.44-1.1c-.38-.78-.76-1.46-1.17-2.2-7,1.2-13,2.13-17.05,2.62l-1.71.29-1-4.08,2.5.17h2.36c.86-1.94,2.22-5.41,2.72-7h-7a11.81,11.81,0,0,0-1.54.1v-1.49a9.41,9.41,0,0,0,1.83.1h22.61a10.61,10.61,0,0,0,1.35-.1V413l-.41,0a5.43,5.43,0,0,0-.75-.06H869.55Zm6.45-5.3a4.37,4.37,0,0,0-.76-.07H863.05a11.85,11.85,0,0,0-1.55.1v-1.49a9.46,9.46,0,0,0,1.83.1h11.72a9.28,9.28,0,0,0,1.36-.1v1.49Z" transform="translate(-407.36 -376.27)"/><path class="cls-1" d="M892.61,424.62l.08-.88a9.47,9.47,0,0,0,.12-1.57v-8c-.73.67-1.65,1.45-2.44,2.1l-1.15,1.08-1.57-1.78,1.13-.86a34.42,34.42,0,0,0,7.31-12.56h-5.37c-.56,0-.66,0-1.51.12l-.56.06v-2.71l.58.08a12.19,12.19,0,0,0,1.82.12h1.54v-2.85a10.12,10.12,0,0,0-.15-1.87l-.08-.58h4.83l-.07.58a13,13,0,0,0-.15,1.87v2.85h.24c1.8,0,2.47,0,3.46-.09l.56-.05v1.61l0,.07a24.89,24.89,0,0,1-3.54,7.33c1.56.88,2.72,1.59,4.11,2.53l1.49.79L900,416.17l-.8-1.56c-.59-.86-1.26-1.74-2-2.71v10.27a12.85,12.85,0,0,0,.15,1.87l.08.58Zm6.55-4.08.59.09a10.32,10.32,0,0,0,1.82.09h4.29V407.29h-3.47a12.18,12.18,0,0,0-1.52.09l-.57.07v-2.66l.58.09a10.44,10.44,0,0,0,1.83.09h3.15v-7.48a9.5,9.5,0,0,0-.16-1.87l-.07-.58h5.14l-.07.58a12,12,0,0,0-.16,1.87V405h3.53a15,15,0,0,0,1.84-.09l.57-.07v2.63l-.57-.06-.32,0-.22,0-.48,0h-4.35v13.43H915a14.78,14.78,0,0,0,1.83-.09l.57-.07v2.63l-.56-.06-.33,0-.22,0-.48,0H901.25a12.3,12.3,0,0,0-1.52.09l-.57.07Z" transform="translate(-407.36 -376.27)"/><path class="cls-1" d="M896.67,422.17a14.83,14.83,0,0,0,.16,1.94h-3.66l0-.32a9.84,9.84,0,0,0,.13-1.62V413c-.73.71-2.09,1.91-3.29,2.88l-.79.74-.85-1,.73-.55a35.36,35.36,0,0,0,7.67-13.45h-6c-.66,0-.72,0-1.64.13v-1.55a14.3,14.3,0,0,0,1.89.13h2.06v-3.37A10.23,10.23,0,0,0,893,395h3.66a14.11,14.11,0,0,0-.16,1.94v3.37h.76a32.64,32.64,0,0,0,3.51-.1v1a24.21,24.21,0,0,1-3.82,7.63c1.67.94,3,1.72,4.61,2.82l1,.51-2.36,3.08-.45-.88c-.82-1.19-1.8-2.42-3-3.88Zm13.36-.94H915a13.65,13.65,0,0,0,1.89-.1v1.49c-.31,0-.44-.06-.6-.06l-.44,0H901.25a12.83,12.83,0,0,0-1.58.09v-1.49a10.43,10.43,0,0,0,1.9.1h4.8V406.78h-4a12.83,12.83,0,0,0-1.58.09v-1.49a10.37,10.37,0,0,0,1.9.1h3.66v-8a10.23,10.23,0,0,0-.16-1.94h4a12.67,12.67,0,0,0-.16,1.94v8h4a13.72,13.72,0,0,0,1.9-.1v1.49c-.32,0-.44-.06-.6-.06l-.44,0H910Z" transform="translate(-407.36 -376.27)"/><path class="cls-1" d="M516.41,446.68a5.23,5.23,0,0,1-3.89-1.49,6.61,6.61,0,0,1-1.65-3.2l-.1-.47,2.78-.79.08.58a3.52,3.52,0,0,0,.84,1.84,2.56,2.56,0,0,0,2,.76,2.6,2.6,0,0,0,2.75-2.78,2,2,0,0,0-.64-1.57,7.1,7.1,0,0,0-1.82-1.06l-1.59-.76a7.13,7.13,0,0,1-2.18-1.41,4,4,0,0,1-1.27-3.08,4.73,4.73,0,0,1,5.06-4.81,4.84,4.84,0,0,1,2.9.84,5.54,5.54,0,0,1,1.75,2l.2.4-2.3,1.56-.25-.53a3.54,3.54,0,0,0-.82-1.08,2.41,2.41,0,0,0-1.5-.45,2,2,0,0,0-2.22,2,1.27,1.27,0,0,0,.46,1.08,4.84,4.84,0,0,0,1.56.95l1.55.7a8.41,8.41,0,0,1,2.67,1.68,4.53,4.53,0,0,1,1.31,3.38A5.44,5.44,0,0,1,516.41,446.68Z" transform="translate(-407.36 -376.27)"/><path class="cls-1" d="M519.51,432.52a4.18,4.18,0,0,0-1-1.24,2.9,2.9,0,0,0-1.83-.58,2.52,2.52,0,0,0-2.73,2.57,1.76,1.76,0,0,0,.61,1.45,5.41,5.41,0,0,0,1.71,1l1.55.7a7.75,7.75,0,0,1,2.51,1.57,4.05,4.05,0,0,1,1.17,3,4.92,4.92,0,0,1-5.14,5.11,4.75,4.75,0,0,1-3.53-1.35,6.06,6.06,0,0,1-1.51-2.94l1.75-.5a4.07,4.07,0,0,0,1,2.12,3.08,3.08,0,0,0,2.34.92,3.11,3.11,0,0,0,3.26-3.29,2.5,2.5,0,0,0-.8-1.94A7.21,7.21,0,0,0,517,438l-1.46-.7a7.15,7.15,0,0,1-2.17-1.37,3.48,3.48,0,0,1-1.12-2.72,4.24,4.24,0,0,1,4.55-4.29,4.32,4.32,0,0,1,2.61.75,4.86,4.86,0,0,1,1.58,1.84Z" transform="translate(-407.36 -376.27)"/><polygon class="cls-1" points="128.34 70.11 128.34 61.98 121.03 61.98 121.03 70.11 118.21 70.11 118.21 52.45 121.03 52.45 121.03 59.21 128.34 59.21 128.34 52.45 131.16 52.45 131.16 70.11 128.34 70.11"/><path class="cls-1" d="M527.88,436h8.33v-6.76H538v16.64h-1.81v-8.13h-8.33v8.13h-1.8V429.23h1.8Z" transform="translate(-407.36 -376.27)"/><path class="cls-1" d="M551,446.68a9.12,9.12,0,1,1,9-9.12A8.95,8.95,0,0,1,551,446.68Zm0-15.46a6.35,6.35,0,1,0,6.09,6.34A6.22,6.22,0,0,0,551,431.22Z" transform="translate(-407.36 -376.27)"/><path class="cls-1" d="M542.55,437.56a8.45,8.45,0,1,1,8.45,8.61A8.39,8.39,0,0,1,542.55,437.56Zm1.85,0a6.6,6.6,0,1,0,6.6-6.86A6.7,6.7,0,0,0,544.4,437.56Z" transform="translate(-407.36 -376.27)"/><polygon class="cls-1" points="153.48 52.45 156.57 52.45 160.51 63.93 165.59 50.64 170.41 63.96 174.8 52.45 177.9 52.45 170.31 71.94 165.54 58.62 160.42 71.95 153.48 52.45"/><path class="cls-1" d="M563.57,429.23l4.28,12.48,5.09-13.33,4.82,13.33,4.75-12.48h2l-6.82,17.51-4.77-13.32-5.12,13.32-6.23-17.51Z" transform="translate(-407.36 -376.27)"/><path class="cls-1" d="M597.27,446.38l-1.9-4.69h-6.23l-1.95,4.69h-3.11l8.26-19.26,8,19.26Zm-3-7.46-2-4.8-2,4.8Z" transform="translate(-407.36 -376.27)"/><path class="cls-1" d="M595.72,441.18H588.8l-1.95,4.69h-2l7.48-17.44,7.28,17.44h-2Zm-.71-1.74-2.73-6.67-2.77,6.67Z" transform="translate(-407.36 -376.27)"/><polygon class="cls-1" points="204.97 58.05 204.97 70.11 202.14 70.11 202.14 50.96 214.8 64.56 214.8 52.45 217.63 52.45 217.63 71.65 204.97 58.05"/><path class="cls-1" d="M610,445.87V428.53l12.67,13.6v-12.9h1.8v17.39L611.82,433v12.85Z" transform="translate(-407.36 -376.27)"/><path class="cls-1" d="M640.41,446.38l-1.9-4.69h-6.23l-1.95,4.69h-3.12l8.26-19.26,8,19.26Zm-3-7.46-2-4.8-2,4.8Z" transform="translate(-407.36 -376.27)"/><path class="cls-1" d="M638.85,441.18h-6.92L630,445.87h-2l7.48-17.44,7.28,17.44h-2Zm-.71-1.74-2.72-6.67-2.78,6.67Z" transform="translate(-407.36 -376.27)"/><polygon class="cls-1" points="242.05 59.87 240.63 70.11 237.74 70.11 240.79 50.23 247.27 64.83 253.88 50.2 256.75 70.11 253.86 70.11 252.5 59.88 247.24 71.55 242.05 59.87"/><path class="cls-1" d="M645.7,445.87l2.7-17.56,6.23,14L661,428.28l2.53,17.59h-1.85l-1.53-11.57-5.53,12.27-5.46-12.27-1.6,11.57Z" transform="translate(-407.36 -376.27)"/><polygon class="cls-1" points="260.62 70.11 260.62 52.45 270.07 52.45 270.07 55.22 263.44 55.22 263.44 59.13 269.87 59.13 269.87 61.9 263.44 61.9 263.44 67.34 270.07 67.34 270.07 70.11 260.62 70.11"/><path class="cls-1" d="M676.92,431H670.3v4.94h6.42v1.74H670.3v6.47h6.62v1.74h-8.43V429.23h8.43Z" transform="translate(-407.36 -376.27)"/><path class="cls-1" d="M680.94,446.38V428.72h3.46a6.32,6.32,0,0,1,4.43,1.3,5.23,5.23,0,0,1,1.66,4c0,2.39-1.48,5.18-5.65,5.18h-1.07v7.23Zm3.8-10c1.09,0,2.92-.33,2.92-2.51,0-1.58-1-2.38-3.07-2.38h-.82v4.89Z" transform="translate(-407.36 -376.27)"/><path class="cls-1" d="M684.4,429.23a5.79,5.79,0,0,1,4.09,1.17A4.7,4.7,0,0,1,690,434c0,2.35-1.43,4.67-5.13,4.67h-1.59v7.23h-1.8V429.23Zm-1.15,7.66h1.49c2.14,0,3.43-1.1,3.43-3,0-2.64-2.41-2.89-3.58-2.89h-1.34Z" transform="translate(-407.36 -376.27)"/><polygon class="cls-1" points="285.9 70.11 285.9 52.45 288.73 52.45 288.73 67.34 293.21 67.34 293.21 70.11 285.9 70.11"/><path class="cls-1" d="M695.58,429.23v14.9h4.48v1.74h-6.29V429.23Z" transform="translate(-407.36 -376.27)"/><path class="cls-1" d="M714.23,446.38l-1.9-4.69H706.1l-2,4.69H701l8.26-19.26,8,19.26Zm-3-7.46-2-4.8-2,4.8Z" transform="translate(-407.36 -376.27)"/><path class="cls-1" d="M712.67,441.18h-6.91l-2,4.69h-2l7.48-17.44,7.28,17.44h-2Zm-.7-1.74-2.73-6.67-2.78,6.67Z" transform="translate(-407.36 -376.27)"/><polygon class="cls-1" points="313.3 70.11 313.3 55.22 309.35 55.22 309.35 52.45 320.07 52.45 320.07 55.22 316.13 55.22 316.13 70.11 313.3 70.11"/><path class="cls-1" d="M723,431v14.89h-1.81V431h-3.94v-1.75h9.69V431Z" transform="translate(-407.36 -376.27)"/><polygon class="cls-1" points="322.7 70.11 322.7 52.45 332.15 52.45 332.15 55.22 325.53 55.22 325.53 59.13 331.96 59.13 331.96 61.9 325.53 61.9 325.53 67.34 332.15 67.34 332.15 70.11 322.7 70.11"/><path class="cls-1" d="M739,431h-6.62v4.94h6.43v1.74h-6.43v6.47H739v1.74h-8.42V429.23H739Z" transform="translate(-407.36 -376.27)"/><polygon class="cls-1" points="333.68 73.21 336 66.49 338.61 67.46 335.73 74.06 333.68 73.21"/><path class="cls-1" d="M743.68,443.43l1.61.6-2.46,5.63-1.15-.47Z" transform="translate(-407.36 -376.27)"/><rect class="cls-1" x="342.43" y="52.45" width="2.83" height="17.66"/><path class="cls-1" d="M752.11,429.23v16.64h-1.8V429.23Z" transform="translate(-407.36 -376.27)"/><path class="cls-1" d="M762.94,446.38v-6.87a2.61,2.61,0,0,0-.36-1.59,1.46,1.46,0,0,0-1.24-.54A1.67,1.67,0,0,0,760,438a3.9,3.9,0,0,0-.62,2.47v5.92h-2.78V435h2.78v.49a4.06,4.06,0,0,1,2.39-.74,3.89,3.89,0,0,1,3.32,1.65,5.22,5.22,0,0,1,.67,3v6.92Z" transform="translate(-407.36 -376.27)"/><path class="cls-1" d="M757.08,435.52h1.75v1.2a3.54,3.54,0,0,1,2.9-1.45,3.41,3.41,0,0,1,2.9,1.42,4.71,4.71,0,0,1,.58,2.77v6.41h-1.75v-6.36a3.09,3.09,0,0,0-.47-1.9,1.94,1.94,0,0,0-1.65-.74,2.19,2.19,0,0,0-1.78.79,4.48,4.48,0,0,0-.73,2.8v5.41h-1.75Z" transform="translate(-407.36 -376.27)"/><path class="cls-1" d="M774.51,446.68A6,6,0,1,1,778,435.85l.22.15v3.91l-.92-1.18a3.55,3.55,0,0,0-2.76-1.35,3.35,3.35,0,0,0,0,6.68,3.72,3.72,0,0,0,2.86-1.43l.91-1.13v3.85l-.2.16A5.84,5.84,0,0,1,774.51,446.68Z" transform="translate(-407.36 -376.27)"/><path class="cls-1" d="M777.66,438.41a4,4,0,0,0-3.17-1.54,3.86,3.86,0,0,0,0,7.7,4.27,4.27,0,0,0,3.26-1.62v2.15a5.35,5.35,0,0,1-3.22,1.07,5.23,5.23,0,0,1-5.4-5.41,5.42,5.42,0,0,1,8.55-4.49Z" transform="translate(-407.36 -376.27)"/><path class="cls-1" d="M782.75,446.63a1.76,1.76,0,1,1,1.73-1.76A1.76,1.76,0,0,1,782.75,446.63Z" transform="translate(-407.36 -376.27)"/><path class="cls-1" d="M782.75,443.63a1.25,1.25,0,1,1-1.22,1.24A1.25,1.25,0,0,1,782.75,443.63Z" transform="translate(-407.36 -376.27)"/><path class="cls-2" d="M430.11,406.66a19.18,19.18,0,0,1,5.84-2.25v11.5s0,1.08,2.3,1c.73,0,2.16,0,2.47-1.11V403.57s0-1.29,2.94-1.63,2.81,1.39,2.81,1.39,0,33.85,0,35.25c0,0,0,1.63-1.14,1.6l-3.31,0a1.36,1.36,0,0,1-1.27-1.33V427s0-1-2.43-1c-.7,0-2.23.16-2.35,1.12v11.64s-5.91.19-5.82-5,0-27.1,0-27.1" transform="translate(-407.36 -376.27)"/><path class="cls-2" d="M464.18,440V403.38c.22-2.49-1.74-2.33-1.74-2.33l-12.25,0a1.68,1.68,0,0,0-1.88,1.36v36.5c0,2.63,1.87,2.55,1.87,2.55l12.26.08c2.05,0,1.74-1.57,1.74-1.57m-5.36-30.44v24c0,1.19-.19,2.06-1.38,2.06h-2.36c-1.19,0-1.39-.86-1.39-2v-24c0-1.19.06-2.11,1.25-2.11h2.79c1.19,0,1.09.92,1.09,2.11" transform="translate(-407.36 -376.27)"/><path class="cls-2" d="M466,402.62a3.35,3.35,0,0,1,2.82-1.41,6.62,6.62,0,0,1,2.9.87V414s.54,1.3,1-.13S475.1,403,475.1,403s-.06-.4.73-.38,4.74,1,4.74,1,.25,0,.33.43,0,10.71,0,10.71.46.82.89-.3,2.3-10,2.3-10,5.16,0,5.16,3.55c0,2.11-3.31,12.75-3.31,12.75l-4.09,14.83a4.79,4.79,0,0,1-2.88,3.34,8.49,8.49,0,0,1-3.66.86s-.71.2-.71-.92,1.31-10.94-.7-5.86a61.5,61.5,0,0,0-1.49,6.19,2,2,0,0,1-2,1.58c-2.31,0-3.49.21-3.94-1.46,0-.11-.42-36.71-.42-36.71" transform="translate(-407.36 -376.27)"/><path class="cls-2" d="M484.12,434.38,491,410a2.48,2.48,0,0,1,3.52-1.31c2.64,1.12,11.61,6,14.81,9.74,0,0,2.23,1.89-.43,5.78-25.36,37.1-66.29,41.67-66.29,41.67a9.5,9.5,0,0,1-4.12-.34c-2.16-.79-9.6-4.09-9.6-4.09s-1.12-.67.52-.76c1.3-.08,43.72-.2,71.79-37.21,0,0,2.52-3-.08-4.4L497.16,417s-1.63-.9-2.52,2.19c-1,3.41-4,14-4,14s-.32,2-3.09,2.6-3.44-1.41-3.44-1.41" transform="translate(-407.36 -376.27)"/><path class="cls-2" d="M426.83,434.79c-1.24.68-3.24-.34-3.24-.34a110.19,110.19,0,0,1-14.51-10s-3.81-2.86-.08-7.44l10.73,8.26s1.84,1.26,2.42,0c.22-.45.8-1,0-1.94l-9.92-7.52s-1.67-1.27.93-4.44c25.1-30.59,62.45-35.07,63.42-35.11s12.17,5.05,12.17,5.05-40.9,2.13-67.57,30.71c-.88.94-.94,1.87.36,2.77.72.49,4.76,3.37,4.76,3.37a6.11,6.11,0,0,1,2.12,4.85c.08,3.41,0,8.81,0,8.81a3.22,3.22,0,0,1-1.64,3" transform="translate(-407.36 -376.27)"/></svg>